<svg xmlns="http://www.w3.org/2000/svg" version="1.1" xmlns:xlink="http://www.w3.org/1999/xlink" xmlns:svgjs="http://svgjs.com/svgjs" width="512" height="512" x="0" y="0" viewBox="0 0 512.001 512.001" style="enable-background:new 0 0 512 512" xml:space="preserve" class=""><g>
<g xmlns="http://www.w3.org/2000/svg">
	<g>
		<path d="M387.099,278.519h-13.187c-4.146,0-7.506,3.36-7.506,7.506c0.001,4.146,3.361,7.506,7.506,7.506h13.187    c4.146,0,7.506-3.36,7.506-7.506S391.245,278.519,387.099,278.519z" fill="#000000" data-original="#000000" class=""></path>
	</g>
</g>
<g xmlns="http://www.w3.org/2000/svg">
	<g>
		<path d="M511.977,235.803c-0.05-1.264-0.193-2.526-0.438-3.761l-16.817-85.108c-0.001-0.003-0.002-0.006-0.002-0.009    l-3.338-16.893c-2.242-11.346-12.264-19.582-23.83-19.582H24.361C10.928,110.449,0,121.378,0,134.811v200.595    c0,13.433,10.928,24.361,24.361,24.361h23.775c3.625,23.627,24.09,41.781,48.715,41.781s45.09-18.153,48.715-41.781h19.33    c4.145,0,7.506-3.36,7.506-7.506s-3.36-7.506-7.506-7.506h-19.331c-3.625-23.626-24.09-41.78-48.715-41.78    s-45.09,18.153-48.715,41.78H24.361c-5.156,0-9.35-4.195-9.35-9.35V134.811c0-5.156,4.194-9.351,9.35-9.351h443.19    c4.418,0,8.246,3.146,9.104,7.481l1.569,7.942h-98.55c-7.316,0-13.268,5.952-13.268,13.268v80.955    c0,7.616,3.646,14.841,9.753,19.326c14.701,10.8,47.57,24.146,120.829,27.45v50.369c0,6.896-5.61,12.506-12.506,12.506h-20.619    c-3.626-23.626-24.09-41.78-48.716-41.78c-24.625,0-45.089,18.153-48.715,41.78H199.821c-4.145,0-7.506,3.36-7.506,7.506    s3.36,7.506,7.506,7.506h166.613c3.625,23.627,24.09,41.781,48.715,41.781c24.626,0,45.09-18.153,48.716-41.781h20.619    c15.173,0,27.517-12.344,27.517-27.517v-95.499v-0.001C512,236.434,511.989,236.118,511.977,235.803z M96.851,317.988    c18.899,0,34.274,15.375,34.274,34.274s-15.375,34.275-34.274,34.275s-34.274-15.376-34.274-34.275S77.952,317.988,96.851,317.988    z M415.149,386.536c-18.899,0-34.274-15.376-34.274-34.275s15.375-34.274,34.274-34.274s34.275,15.375,34.275,34.274    C449.423,371.16,434.048,386.536,415.149,386.536z M381.418,235.106v-79.211h99.772l15.622,79.061    c0.028,0.141,0.042,0.285,0.063,0.428c0.062,0.417,0.102,0.838,0.107,1.259c0,0.037,0.005,0.073,0.005,0.109v30.103    c-72.703-3.352-101.281-16.69-111.94-24.521C382.775,240.665,381.418,237.963,381.418,235.106z" fill="#000000" data-original="#000000" class=""></path>
	</g>
</g>
<g xmlns="http://www.w3.org/2000/svg">
	<g>
		<path d="M170.837,140.883H45.197c-6.601,0-11.971,5.37-11.971,11.971v84.46c0,6.601,5.37,11.971,11.971,11.971h125.64    c6.601,0,11.971-5.37,11.971-11.971v-84.46C182.808,146.253,177.438,140.883,170.837,140.883z M100.511,234.274H48.237v-78.38    h52.274V234.274z M167.797,234.274h-52.274v-78.38h52.274V234.274z" fill="#000000" data-original="#000000" class=""></path>
	</g>
</g>
<g xmlns="http://www.w3.org/2000/svg">
	<g>
		<path d="M335.598,140.883H209.957c-6.601,0-11.971,5.37-11.971,11.971v84.46c0,6.601,5.37,11.971,11.971,11.971h125.641    c6.601,0,11.971-5.37,11.971-11.971v-84.46C347.569,146.253,342.199,140.883,335.598,140.883z M332.558,234.274h-52.275v-28.447    c0-4.146-3.36-7.506-7.506-7.506s-7.506,3.36-7.506,7.506v28.447h-52.274v-78.38h52.274v15.008c0,4.146,3.36,7.506,7.506,7.506    c4.146,0,7.506-3.36,7.506-7.506v-15.008h52.275V234.274z" fill="#000000" data-original="#000000" class=""></path>
	</g>
</g>
</g></svg>