<svg xmlns="http://www.w3.org/2000/svg" version="1.1" xmlns:xlink="http://www.w3.org/1999/xlink" xmlns:svgjs="http://svgjs.com/svgjs" width="512" height="512" x="0" y="0" viewBox="0 0 512.622 512.622" style="enable-background:new 0 0 512 512" xml:space="preserve" class=""><g><g xmlns="http://www.w3.org/2000/svg"><path d="m395.252 311.83c-4.142 0-7.5 3.357-7.5 7.5v2.581c0 4.143 3.358 7.5 7.5 7.5s7.5-3.357 7.5-7.5v-2.581c0-4.142-3.358-7.5-7.5-7.5z" fill="#000000" data-original="#000000" class=""></path><path d="m348.807 371.764c-4.142 0-7.5 3.357-7.5 7.5v2.582c0 4.143 3.358 7.5 7.5 7.5s7.5-3.357 7.5-7.5v-2.582c0-4.143-3.358-7.5-7.5-7.5z" fill="#000000" data-original="#000000" class=""></path><path d="m226.621 37.979c-4.142 0-7.5 3.357-7.5 7.5v2.581c0 4.143 3.358 7.5 7.5 7.5s7.5-3.357 7.5-7.5v-2.581c0-4.142-3.358-7.5-7.5-7.5z" fill="#000000" data-original="#000000" class=""></path><path d="m79.724 46.669c-4.142 0-7.5 3.357-7.5 7.5v2.582c0 4.143 3.358 7.5 7.5 7.5s7.5-3.357 7.5-7.5v-2.582c0-4.143-3.358-7.5-7.5-7.5z" fill="#000000" data-original="#000000" class=""></path><path d="m125.694 160.904c4.142 0 7.5-3.357 7.5-7.5v-2.581c0-4.143-3.358-7.5-7.5-7.5s-7.5 3.357-7.5 7.5v2.581c0 4.143 3.358 7.5 7.5 7.5z" fill="#000000" data-original="#000000" class=""></path><path d="m482.274 421.915c-.846-10.554-8.714-19.379-19.134-21.461-1.416-.283-2.837-.437-4.256-.462-3.635-8.699-12.142-14.564-21.988-14.564-5.508 0-10.594 1.838-14.645 4.978v-28.66c6.539-3.701 11.245-10.414 12.1-18.118.502-4.529-.286-9.028-2.206-13.023 5.85-4.867 9.121-12.34 8.485-20.268-.825-10.295-8.34-18.926-18.379-21.276v-69.108c0-28.191-5.859-55.402-17.415-80.878-1.711-3.771-6.156-5.442-9.928-3.731s-5.443 6.156-3.732 9.929c10.667 23.515 16.075 48.642 16.075 74.681v57.098c-3.532-2.043-7.632-3.201-11.999-3.201-3.964 0-7.702.964-11.001 2.667v-56.563c0-36.403-12.733-71.958-35.854-100.112-21.28-25.913-50.382-44.489-82.543-52.839-.016-3.575-.814-7.072-2.34-10.248 3.789-3.152 6.486-7.4 7.751-12.154 42.186 10.762 78.844 36.248 103.91 72.452 1.457 2.104 3.795 3.231 6.173 3.231 1.472 0 2.96-.433 4.263-1.335 3.405-2.357 4.255-7.03 1.896-10.436-28.105-40.592-69.679-68.741-117.433-79.631-3.074-6.986-9.429-12.302-17.209-13.856-1.416-.283-2.837-.437-4.256-.462-3.636-8.7-12.142-14.565-21.988-14.565-9.847 0-18.354 5.865-21.987 14.564-1.421.025-2.844.179-4.261.462-7.718 1.544-14.027 6.792-17.126 13.697-20.615 4.628-40.518 12.672-58.649 23.67.521-2.318.703-4.745.505-7.217-.846-10.554-8.714-19.379-19.134-21.461-1.416-.283-2.837-.437-4.256-.461-3.635-8.7-12.142-14.565-21.988-14.565s-18.353 5.866-21.987 14.564c-1.421.025-2.844.18-4.261.463-10.419 2.084-18.286 10.911-19.129 21.466-.633 7.926 2.638 15.396 8.485 20.261-1.919 3.995-2.708 8.494-2.206 13.024 1.185 10.688 9.766 19.5 20.405 20.954 1.104.151 2.205.225 3.296.225 2.927 0 5.78-.54 8.443-1.543-27.505 34.574-42.499 77.254-42.499 121.85v166.094c0 4.143 3.358 7.5 7.5 7.5s7.5-3.357 7.5-7.5v-166.094c0-44.73 16.324-87.384 46.06-120.613 2.303.368 4.686.411 7.088.081 10.639-1.453 19.22-10.266 20.404-20.954.157-1.415.173-2.825.083-4.219 18.848-13.897 40.416-24.077 63.035-29.792 1.248 4.812 3.961 9.114 7.788 12.297-1.5 3.122-2.299 6.554-2.341 10.068-27.245 6.911-52.067 20.966-72.239 40.951-5.111 2.5-9.203 6.776-11.442 12.135-1.421.025-2.844.18-4.261.463-10.419 2.084-18.285 10.911-19.129 21.466-.35 4.381.498 8.621 2.31 12.361-9.525 20.695-14.356 42.794-14.356 65.756v285.169c0 4.143 3.358 7.5 7.5 7.5s7.5-3.357 7.5-7.5v-184.93l19.387-9.603c34.495-17.087 63.458-43.407 83.757-76.116 20.299-32.708 31.028-70.344 31.028-108.839v-35.498c3.372-.906 6.507-2.539 9.179-4.795 2.934 2.477 6.427 4.201 10.179 5.037v35.255c0 49.215 17.639 96.91 49.668 134.3 1.483 1.732 3.584 2.621 5.699 2.621 1.727 0 3.462-.593 4.876-1.804 3.146-2.695 3.511-7.43.816-10.575-29.702-34.674-46.06-78.904-46.06-124.542v-36.81c3.698-1.691 6.907-4.31 9.325-7.549 3.261.822 6.488 1.759 9.675 2.81v41.549c0 6.137.341 12.395 1.013 18.6.417 3.844 3.667 6.693 7.447 6.693.27 0 .543-.015.817-.045 4.118-.446 7.094-4.146 6.648-8.264-.615-5.672-.926-11.386-.926-16.984v-35.635c6.586 3.035 12.94 6.567 19 10.564v25.072c0 21.403 5.079 42.846 14.688 62.01 1.316 2.624 3.962 4.141 6.71 4.141 1.13 0 2.277-.257 3.356-.798 3.703-1.856 5.199-6.363 3.343-10.065-8.569-17.089-13.098-36.206-13.098-55.287v-13.718c6.124 5.3 11.82 11.131 17.004 17.444 20.924 25.479 32.447 57.651 32.447 90.593v4.433c-6.972-5.218-13.394-11.15-19.152-17.773-2.718-3.127-7.456-3.456-10.581-.739-3.126 2.718-3.457 7.455-.739 10.581 8.864 10.194 19.107 18.965 30.472 26.147v21.966c-24.507-13.041-45.118-32.294-59.789-55.934-7.939-12.793-13.999-26.67-18.009-41.246-1.099-3.994-5.229-6.338-9.221-5.242-3.994 1.099-6.34 5.228-5.242 9.221 4.392 15.963 11.029 31.163 19.727 45.178 16.955 27.319 41.146 49.305 69.959 63.577l2.575 1.275v7.441c-.082.016-.165.021-.248.038-5.045 1.009-9.481 3.609-12.822 7.21-12.694-6.481-24.673-14.368-35.62-23.504-3.18-2.651-7.91-2.228-10.563.953s-2.227 7.91.953 10.564c11.973 9.991 25.09 18.602 38.996 25.646-.021.2-.057.396-.073.597-.634 7.925 2.636 15.395 8.486 20.261-.696 1.448-1.238 2.964-1.629 4.521-2.483-.866-5.148-1.341-7.924-1.341-9.846 0-18.352 5.864-21.987 14.564-1.421.025-2.844.18-4.261.463-10.419 2.084-18.286 10.911-19.129 21.466-.634 7.925 2.637 15.396 8.485 20.261-1.92 3.995-2.708 8.494-2.207 13.024 1.185 10.688 9.766 19.5 20.405 20.954 1.104.151 2.205.225 3.296.225 5.703 0 11.137-2.019 15.398-5.615 5.076 4.285 11.816 6.335 18.695 5.391.591-.081 1.173-.192 1.75-.317v80.923c0 4.143 3.358 7.5 7.5 7.5s7.5-3.357 7.5-7.5v-91.419c1.945-3.012 3.246-6.459 3.654-10.141.502-4.53-.286-9.029-2.206-13.023 5.85-4.866 9.121-12.34 8.485-20.268v.001c-.246-3.074-1.096-5.996-2.426-8.65 1.229-.706 2.404-1.51 3.494-2.43 3.404 2.873 7.558 4.734 11.999 5.369v36.854c-8.693 3.137-14.983 11.134-15.733 20.505-.633 7.926 2.637 15.396 8.485 20.261-1.919 3.995-2.708 8.494-2.206 13.023.734 6.622 4.311 12.52 9.454 16.397v33.52c0 4.143 3.358 7.5 7.5 7.5s7.5-3.357 7.5-7.5v-28.753c5.426-.169 10.572-2.161 14.645-5.599 4.261 3.597 9.693 5.615 15.396 5.615 1.091 0 2.193-.074 3.299-.226 10.639-1.453 19.22-10.265 20.404-20.953.502-4.53-.287-9.03-2.206-13.024 5.85-4.867 9.12-12.338 8.485-20.267zm-380.748-352.244c1.837 1.929 2.685 4.466 2.388 7.145-.438 3.952-3.603 7.209-7.525 7.745-4.398.59-7.513-1.854-8.957-4.349-1.59-2.749-4.544-4.458-7.707-4.458-3.164 0-6.117 1.709-7.707 4.456-1.446 2.497-4.562 4.948-8.957 4.351-3.923-.536-7.089-3.794-7.526-7.745-.297-2.679.551-5.217 2.388-7.146 2.022-2.124 2.859-5.106 2.239-7.978-.621-2.877-2.619-5.252-5.344-6.355-3.613-1.461-5.831-5.062-5.52-8.959.307-3.845 3.301-7.188 7.12-7.952.573-.115 1.148-.173 1.721-.173.67 0 1.339.079 2.002.235 2.413.569 4.974.102 7.024-1.281 2.045-1.379 3.433-3.569 3.809-6.012.658-4.279 4.419-7.506 8.749-7.506s8.091 3.227 8.749 7.502c.375 2.442 1.762 4.635 3.807 6.015 2.051 1.384 4.612 1.853 7.031 1.281 1.227-.289 2.478-.31 3.717-.062 3.818.764 6.813 4.107 7.122 7.951.312 3.898-1.905 7.5-5.52 8.962-2.724 1.102-4.721 3.477-5.343 6.353-.62 2.871.216 5.853 2.24 7.98zm-6.258 73.361c.308-3.844 3.302-7.188 7.12-7.952 1.244-.249 2.494-.227 3.723.062 2.417.571 4.976.103 7.027-1.282 2.045-1.38 3.433-3.572 3.807-6.011.082-.535.213-1.053.387-1.551 1.22-3.484 4.574-5.955 8.362-5.955 1.464 0 2.859.376 4.096 1.03 2.419 1.28 4.218 3.644 4.654 6.477.038.244.093.483.15.722.014.059.022.12.037.178.042.161.1.317.151.475.043.133.078.269.128.399.032.084.074.164.108.247.082.198.162.398.257.59.019.039.044.075.064.113.329.636.738 1.227 1.211 1.767.5.572 1.065 1.089 1.704 1.52.257.173.522.333.794.477.014.008.029.013.043.02 1.888.99 4.094 1.28 6.195.782 1.222-.288 2.472-.309 3.713-.062 3.579.716 6.435 3.699 7.032 7.237.04.236.07.474.089.714.078.975-.002 1.931-.222 2.839-.165.682-.41 1.336-.725 1.953-.013.026-.029.05-.043.076-.467.889-1.086 1.693-1.831 2.379-.772.713-1.677 1.301-2.698 1.714 0 0 0 .001-.001.001-1.703.689-3.122 1.875-4.098 3.37-.154.236-.287.484-.419.735-.035.067-.079.129-.112.197-.318.645-.559 1.334-.715 2.054-.51 2.364-.019 4.794 1.293 6.766.282.425.589.835.947 1.212.912.957 1.578 2.064 1.984 3.264.304.9.459 1.853.46 2.833 0 .017.003.033.002.05-.002.33-.021.662-.058.997-.137 1.235-.54 2.402-1.149 3.439-1.341 2.282-3.68 3.937-6.377 4.305-.025.003-.049.004-.073.007-4.363.559-7.447-1.874-8.883-4.355-1.59-2.749-4.544-4.458-7.707-4.458-3.164 0-6.117 1.709-7.707 4.457-.181.312-.387.623-.619.928-1.625 2.132-4.49 3.94-8.339 3.421-3.923-.536-7.088-3.793-7.526-7.745-.073-.654-.074-1.299-.013-1.93.191-1.951 1.013-3.757 2.404-5.217.947-.996 1.623-2.184 2.021-3.457.026-.084.063-.165.087-.25.049-.176.078-.356.116-.534.037-.17.084-.338.11-.51.016-.101.016-.204.028-.306.03-.253.062-.506.07-.761.001-.029-.003-.058-.003-.086.015-.688-.045-1.382-.193-2.07-.155-.72-.397-1.409-.715-2.054-.034-.068-.077-.13-.113-.198-.131-.25-.265-.499-.418-.734-.976-1.495-2.395-2.682-4.099-3.371-3.611-1.46-5.83-5.06-5.518-8.958zm-6.847 38.823c3.265 7.477 10.288 13.088 18.578 14.22 1.768.242 3.526.283 5.249.144-7.929 11.354-17.764 21.338-28.978 29.444v-5.709c-.001-13.051 1.735-25.789 5.151-38.099zm85.247 44.708c-18.824 30.331-45.682 54.739-77.67 70.584l-12.729 6.305v-21.202l4.295-2.128c22.828-11.309 43.211-27.855 58.946-47.854 2.562-3.255 1.999-7.971-1.256-10.532s-7.971-2-10.532 1.257c-13.818 17.561-31.571 32.196-51.453 42.475v-21.791c18.355-11.234 34.008-26.759 45.365-45.061.903-1.455 1.777-2.938 2.63-4.435 3.046 1.373 6.383 2.12 9.824 2.12 1.092 0 2.193-.074 3.299-.226 6.649-.908 12.494-4.691 16.233-10.01 2.243-3.191 3.727-6.935 4.171-10.944.188-1.698.195-3.393.029-5.058-.047-.474-.116-.943-.191-1.411-.013-.081-.019-.163-.033-.243-.374-2.191-1.051-4.314-2.011-6.312 4.752-3.954 7.803-9.628 8.439-15.87.096-.944.136-1.902.119-2.868 0-.016.001-.032.001-.049-.01-.491-.034-.985-.074-1.481-.846-10.553-8.714-19.378-19.134-21.461-1.416-.283-2.837-.437-4.256-.462-1.136-2.719-2.748-5.16-4.727-7.233-.396-.415-.807-.814-1.231-1.198-1.386-1.255-2.927-2.333-4.578-3.232 16.138-12.928 34.778-22.176 54.851-27.127 2.645 3.604 6.263 6.464 10.445 8.147v36.369c.001 35.699-9.948 70.6-28.772 100.931zm60.66-155.042c-1.591-2.749-4.544-4.457-7.707-4.457s-6.116 1.708-7.707 4.456c-1.445 2.495-4.563 4.947-8.958 4.35-3.923-.536-7.088-3.793-7.525-7.745-.297-2.679.551-5.217 2.387-7.144 2.023-2.123 2.861-5.105 2.241-7.978-.621-2.877-2.619-5.253-5.344-6.356-3.613-1.461-5.831-5.062-5.52-8.959.307-3.845 3.301-7.189 7.118-7.953.575-.114 1.151-.172 1.726-.172.669 0 1.334.077 1.991.232 2.414.57 4.976.107 7.028-1.275 2.047-1.378 3.438-3.57 3.814-6.015.658-4.279 4.419-7.506 8.749-7.506s8.091 3.227 8.749 7.508c.377 2.442 1.767 4.635 3.814 6.013 2.052 1.382 4.613 1.848 7.024 1.276 1.224-.288 2.474-.309 3.718-.062 3.818.763 6.812 4.106 7.121 7.95.312 3.898-1.906 7.5-5.52 8.963-2.725 1.103-4.723 3.479-5.344 6.355-.62 2.872.218 5.854 2.24 7.977 1.837 1.929 2.685 4.466 2.388 7.145-.08.722-.253 1.419-.503 2.082-.011.031-.024.06-.034.091-1.139 2.923-3.815 5.138-6.989 5.572-4.398.59-7.513-1.853-8.957-4.348zm131.143 338.134c-4.395.596-7.513-1.854-8.958-4.349-1.59-2.749-4.544-4.458-7.707-4.458-3.164 0-6.117 1.709-7.707 4.457-1.445 2.496-4.556 4.949-8.957 4.35-3.923-.536-7.089-3.794-7.526-7.745-.297-2.679.551-5.216 2.391-7.147 2.021-2.124 2.857-5.106 2.236-7.978-.622-2.876-2.619-5.251-5.343-6.354-3.613-1.461-5.831-5.062-5.52-8.959.307-3.845 3.301-7.188 7.121-7.952.573-.115 1.147-.173 1.721-.173.67 0 1.339.079 2.002.235 2.415.571 4.976.103 7.026-1.282 2.045-1.38 3.433-3.572 3.807-6.011.658-4.279 4.42-7.506 8.75-7.506s8.091 3.227 8.749 7.507c.376 2.441 1.764 4.632 3.809 6.011 2.05 1.383 4.609 1.85 7.029 1.28 1.226-.29 2.477-.31 3.717-.062 3.818.764 6.813 4.106 7.121 7.95v.001c.313 3.898-1.905 7.5-5.52 8.962-2.725 1.103-4.722 3.478-5.343 6.354-.621 2.871.217 5.854 2.24 7.979 1.836 1.928 2.685 4.466 2.387 7.145-.437 3.952-3.603 7.209-7.525 7.745zm37.487-64.286c-1.591-2.747-4.544-4.454-7.706-4.454s-6.114 1.707-7.707 4.456c-1.445 2.496-4.563 4.937-8.958 4.35-3.923-.536-7.088-3.793-7.526-7.744-.297-2.68.551-5.218 2.391-7.148 2.022-2.125 2.858-5.109 2.235-7.981-.623-2.877-2.623-5.251-5.342-6.349-3.613-1.461-5.831-5.062-5.52-8.96.307-3.845 3.301-7.188 7.12-7.952.573-.115 1.148-.172 1.722-.172.668 0 1.335.077 1.992.232 2.415.57 4.976.107 7.028-1.275 2.048-1.379 3.438-3.571 3.814-6.016.658-4.279 4.419-7.506 8.749-7.506s8.091 3.227 8.749 7.507c.376 2.443 1.766 4.636 3.814 6.015 2.052 1.382 4.614 1.847 7.024 1.276 1.224-.288 2.475-.309 3.718-.062 3.818.763 6.812 4.106 7.121 7.95.312 3.898-1.906 7.5-5.514 8.96-2.727 1.101-4.727 3.476-5.349 6.354-.622 2.873.216 5.856 2.239 7.98 1.837 1.929 2.685 4.466 2.388 7.145-.438 3.952-3.604 7.209-7.526 7.745-4.392.595-7.51-1.853-8.956-4.351zm58.844 86.707c-2.724 1.102-4.721 3.477-5.343 6.353-.621 2.871.215 5.854 2.239 7.98 1.837 1.929 2.685 4.466 2.388 7.145-.438 3.951-3.603 7.208-7.526 7.744-4.4.599-7.512-1.853-8.956-4.348-1.59-2.749-4.544-4.458-7.707-4.458-3.164 0-6.117 1.709-7.707 4.456-1.446 2.497-4.561 4.952-8.958 4.35-3.923-.536-7.088-3.793-7.526-7.745-.297-2.679.551-5.216 2.389-7.145 2.022-2.124 2.859-5.106 2.239-7.978-.621-2.877-2.619-5.252-5.344-6.355-3.613-1.461-5.831-5.062-5.52-8.959.308-3.844 3.302-7.188 7.12-7.952 1.244-.249 2.494-.228 3.723.062 2.413.57 4.974.102 7.024-1.281 2.045-1.379 3.433-3.569 3.809-6.012.658-4.279 4.419-7.506 8.749-7.506s8.091 3.227 8.749 7.502c.375 2.442 1.762 4.634 3.807 6.015 2.051 1.384 4.613 1.852 7.033 1.281 1.225-.29 2.476-.31 3.716-.062 3.818.764 6.813 4.107 7.122 7.951.312 3.899-1.906 7.5-5.52 8.962z" fill="#000000" data-original="#000000" class=""></path><path d="m436.896 423.407c-4.142 0-7.5 3.357-7.5 7.5v2.581c0 4.143 3.358 7.5 7.5 7.5s7.5-3.357 7.5-7.5v-2.581c0-4.142-3.358-7.5-7.5-7.5z" fill="#000000" data-original="#000000" class=""></path><path d="m37.77 410.62c-4.142 0-7.5 3.357-7.5 7.5v87.002c0 4.143 3.358 7.5 7.5 7.5s7.5-3.357 7.5-7.5v-87.002c0-4.142-3.358-7.5-7.5-7.5z" fill="#000000" data-original="#000000" class=""></path></g></g></svg>