
<svg xmlns="http://www.w3.org/2000/svg" version="1.1" xmlns:xlink="http://www.w3.org/1999/xlink" preserveAspectRatio="none" x="0px" y="0px" width="463px" height="463px" viewBox="0 0 463 463">
<defs>
<g id="Layer0_0_MEMBER_0_MEMBER_0_FILL">
<path fill="#000000" stroke="none" d="
M 456.35 334.4
L 454.8 332.1
Q 450.9 326.65 445.35 323.2 439.75 319.75 433.15 318.65 426.6 317.55 420.2 319.05 413.8 320.55 408.4 324.45
L 313 392.55 213.3 392.55
Q 209.8 392.55 207.3 390.05 204.8 387.6 204.8 384.05 204.8 380.5 207.3 378 209.75 375.5 213.3 375.5
L 268.75 375.5
Q 281.1 375.5 289.9 366.75 298.65 358 298.65 345.65
L 298.6 344.65
Q 298.25 332.35 289.2 323.9 280.25 315.45 268.1 315.75
L 157.1 315.75
Q 149.7 315.85 142.75 318.4 135.75 320.95 130.1 325.65
L 88.4 360.4
Q 85.3 363 85.3 366.95
L 85.3 469.35
Q 85.3 472.9 87.8 475.4 90.3 477.9 93.85 477.9
L 305.55 477.9
Q 315.95 477.9 325.75 474.35 335.55 470.8 343.6 464.15
L 447.05 378.7
Q 457.6 371.15 460.25 358.35 462.95 345.55 456.35 334.4
M 441 342.1
L 441.7 343.15
Q 444.95 348.65 443.55 354.9 442.15 361.25 436.65 365.15
L 332.7 451
Q 327 455.75 320 458.3 313 460.8 305.55 460.8
L 102.4 460.8 102.4 370.95 141.05 338.75
Q 148.1 332.95 157.15 332.8
L 268.35 332.8
Q 273.75 332.8 277.55 336.4 281.4 340.1 281.55 345.65 281.55 350.95 277.8 354.65 274.05 358.4 268.75 358.4
L 213.3 358.4
Q 202.75 358.4 195.2 365.9 187.7 373.45 187.7 384 187.7 394.6 195.2 402.15 202.7 409.65 213.3 409.65
L 315.7 409.65
Q 318.3 409.65 320.7 408.05
L 418.3 338.3
Q 423.8 334.45 430.4 335.5 437 336.6 441 342.1 Z"/>
</g>

<g id="Layer0_1_MEMBER_0_MEMBER_0_FILL">
<path fill="#000000" stroke="none" d="
M 0 349.9
L 0 366.95 85.05 366.95 85.05 494.95 0 494.95 0 512 93.6 512
Q 97.15 512 99.6 509.5 102.1 507.05 102.1 503.5
L 102.1 358.4
Q 102.1 354.9 99.6 352.4 97.15 349.9 93.6 349.9
L 0 349.9 Z"/>
</g>

<g id="Layer0_2_MEMBER_0_MEMBER_0_FILL">
<path fill="#000000" stroke="none" d="
M 60.75 434.2
Q 53.25 426.7 42.65 426.7 32.1 426.7 24.55 434.2 17.05 441.75 17.05 452.3 17.05 462.9 24.55 470.4 32.1 477.9 42.65 477.9 53.25 477.9 60.75 470.4 68.25 462.9 68.25 452.3 68.25 441.75 60.75 434.2
M 34.1 452.3
Q 34.1 448.8 36.6 446.25 39.15 443.75 42.65 443.75 46.2 443.75 48.7 446.25 51.2 448.8 51.2 452.3 51.2 455.8 48.7 458.3 46.2 460.8 42.65 460.8 39.1 460.8 36.6 458.3 34.1 455.8 34.1 452.3 Z"/>
</g>

<g id="Layer0_3_MEMBER_0_MEMBER_0_FILL">
<path fill="#000000" stroke="none" d="
M 511.95 273.1
Q 512 269.55 509.5 267.05 507 264.55 503.45 264.55
L 8.5 264.55
Q 4.95 264.55 2.5 267.05 0 269.55 0 273.1 0 297.8 17.5 315.3 35 332.8 59.7 332.8
L 452.25 332.8
Q 476.95 332.8 494.45 315.3 511.95 297.8 511.95 273.1
M 479.4 306
Q 467.55 315.75 452.25 315.75
L 59.7 315.75
Q 44.4 315.75 32.55 306 20.9 296.35 17.9 281.65
L 494.05 281.65
Q 491.05 296.35 479.4 306 Z"/>
</g>

<g id="Layer0_4_MEMBER_0_MEMBER_0_FILL">
<path fill="#000000" stroke="none" d="
M 460.4 178.25
Q 443.5 138.45 412.8 107.75 382.05 77 342.25 60.15 301.05 42.7 256 42.7 210.95 42.7 169.7 60.15 129.9 77 99.15 107.75 68.45 138.45 51.55 178.25 34.1 219.5 34.1 264.55
L 34.1 273.1
Q 34.1 276.6 36.6 279.1 39.1 281.6 42.65 281.6
L 469.3 281.6
Q 472.85 281.6 475.35 279.1 477.85 276.65 477.85 273.1
L 477.85 264.55
Q 477.85 219.5 460.4 178.25
M 400.7 119.8
Q 429.05 148.2 444.65 184.9 460.75 222.95 460.75 264.55
L 51.2 264.55
Q 51.2 222.95 67.3 184.9 82.9 148.2 111.25 119.8 139.6 91.45 176.35 75.85 214.4 59.75 256 59.75 297.6 59.75 335.6 75.85 372.35 91.45 400.7 119.8 Z"/>
</g>

<g id="Layer0_5_MEMBER_0_MEMBER_0_FILL">
<path fill="#000000" stroke="none" d="
M 99.2 161.35
L 113.4 170.8
Q 120.2 160.55 128.4 151.35
L 115.6 140.05
Q 106.4 150.45 99.2 161.35 Z"/>
</g>

<g id="Layer0_6_MEMBER_0_MEMBER_0_FILL">
<path fill="#000000" stroke="none" d="
M 256 93.9
L 256 76.85
Q 220.05 76.85 186.85 90 153.7 103.15 127.5 127.8
L 139.2 140.2
Q 163 117.8 193.15 105.85 223.3 93.9 256 93.9 Z"/>
</g>

<g id="Layer0_7_MEMBER_0_MEMBER_0_FILL">
<path fill="#000000" stroke="none" d="
M 281.6 17.1
L 281.6 0 230.35 0 230.35 17.1 281.6 17.1 Z"/>
</g>

<g id="Layer0_8_MEMBER_0_MEMBER_0_FILL">
<path fill="#000000" stroke="none" d="
M 264.5 8.55
L 247.45 8.55 247.45 51.25 264.5 51.25 264.5 8.55 Z"/>
</g>
</defs>

<g transform="matrix( 0.80859375, 0, 0, 0.80859375, 26,42) ">
<use xlink:href="#Layer0_0_MEMBER_0_MEMBER_0_FILL"/>
</g>

<g transform="matrix( 0.80859375, 0, 0, 0.80859375, 26,42) ">
<use xlink:href="#Layer0_1_MEMBER_0_MEMBER_0_FILL"/>
</g>

<g transform="matrix( 0.80859375, 0, 0, 0.80859375, 26,42) ">
<use xlink:href="#Layer0_2_MEMBER_0_MEMBER_0_FILL"/>
</g>

<g transform="matrix( 0.80859375, 0, 0, 0.80859375, 26,42) ">
<use xlink:href="#Layer0_3_MEMBER_0_MEMBER_0_FILL"/>
</g>

<g transform="matrix( 0.80859375, 0, 0, 0.80859375, 26,42) ">
<use xlink:href="#Layer0_4_MEMBER_0_MEMBER_0_FILL"/>
</g>

<g transform="matrix( 0.80859375, 0, 0, 0.80859375, 26,42) ">
<use xlink:href="#Layer0_5_MEMBER_0_MEMBER_0_FILL"/>
</g>

<g transform="matrix( 0.80859375, 0, 0, 0.80859375, 26,42) ">
<use xlink:href="#Layer0_6_MEMBER_0_MEMBER_0_FILL"/>
</g>

<g transform="matrix( 0.80859375, 0, 0, 0.80859375, 26,42) ">
<use xlink:href="#Layer0_7_MEMBER_0_MEMBER_0_FILL"/>
</g>

<g transform="matrix( 0.80859375, 0, 0, 0.80859375, 26,42) ">
<use xlink:href="#Layer0_8_MEMBER_0_MEMBER_0_FILL"/>
</g>
</svg>
