
<svg xmlns="http://www.w3.org/2000/svg" version="1.1" xmlns:xlink="http://www.w3.org/1999/xlink" preserveAspectRatio="none" x="0px" y="0px" width="463px" height="463px" viewBox="0 0 463 463">
<defs>
<g id="Layer2_0_MEMBER_0_MEMBER_0_MEMBER_0_FILL">
<path fill="#000000" stroke="none" d="
M 385.6 194.65
Q 370.9 180 350.25 180
L 321.85 180
Q 309.75 180 301.15 188.6 292.6 197.15 292.6 209.25
L 292.6 256.75
Q 292.6 267 296.3 276.5 299.85 285.7 306.4 293.1 295.75 296.45 288.45 304.65
L 251.2 340.9
Q 247.6 345.05 242.15 345.05 239.5 345.05 237.15 343.95 234.8 342.9 233.1 340.9
L 192.7 304.75
Q 188.8 300.5 183.65 298 178.45 295.5 172.75 295.1 180.45 279.45 180.45 261.85
L 180.45 238.6
Q 180.45 228.1 176.5 218.5 172.5 208.9 165.1 201.45 157.65 194 148.05 190.05 138.5 186.1 127.95 186.1
L 126.85 186.1
Q 104.5 186.1 88.65 201.9 72.8 217.65 72.8 239.9 72.8 258.5 64.85 275.1 56.85 291.7 42.35 303.3
L 33.95 310
Q 30.05 313.15 28.7 317.85 27.35 322.5 29 327.2 30.7 331.95 34.65 334.75 38.65 337.6 43.65 337.6
L 64.3 337.6
Q 62 342.85 60.25 348.55
L 33.35 437.05
Q 30.8 445.4 32.15 454.1 33.55 462.8 38.45 469.4 42.2 474.45 47.4 477.25 52.6 480 58.35 480
L 183.95 480
Q 189.7 480 194.9 477.25 200.1 474.45 203.85 469.4 208.75 462.8 210.15 454.1 211.5 445.4 208.95 437.05
L 184.7 357.1
Q 183.45 353.15 179.8 351.2 176.15 349.25 172.2 350.45 168.25 351.65 166.3 355.3 164.35 358.95 165.55 362.95
L 189.8 442.9
Q 191.05 446.95 190.3 451.2 189.65 454.95 187.8 457.5 185.9 460.05 183.95 460.05
L 58.35 460.05
Q 56.4 460.05 54.5 457.5 52.65 454.95 52 451.2 51.25 446.95 52.5 442.9
L 79.35 354.35
Q 82.25 345 86.9 337.6
L 104.7 337.6
Q 120.25 337.6 134.4 331.55 148.05 325.7 158.6 315.05
L 170.55 315.05
Q 175.15 315.05 178.1 318.45
L 218.5 354.6
Q 223.05 359.6 229.2 362.3 235.4 365.05 242.15 365.05 248.95 365.05 255.2 362.25 261.4 359.45 265.95 354.4
L 303.2 318.15
Q 306.05 314.9 310 313.1 313.95 311.3 318.25 311.3
L 362.15 311.3
Q 366.5 311.3 370.4 313.05 374.25 314.8 377.15 318.05 380.05 321.35 381.3 325.4 382.5 329.45 381.95 333.85
L 376.05 384.7 348.25 398.6 322.1 385.5 318.3 353.85
Q 317.8 349.75 314.55 347.15 311.35 344.6 307.2 345.1 303.1 345.6 300.5 348.85 297.95 352.1 298.45 356.2
L 311.1 462.5
Q 312.05 470 317.75 475 323.4 480 330.95 480
L 367.3 480
Q 374.85 480 380.55 475 386.2 469.95 387.15 462.4
L 401.85 336.25
Q 402.9 327.75 400.35 319.5 397.8 311.3 392.1 304.85 388.05 300.2 382.85 297.1 383.75 296.3 384.15 295.85 391.95 288.2 396.1 278.3 400.25 268.35 400.25 257.45
L 400.25 230
Q 400.25 209.35 385.6 194.65
M 371.45 208.85
Q 380.25 217.65 380.25 230.05
L 380.25 257.45
Q 380.25 264.3 377.65 270.55 375.05 276.8 370.15 281.6 365.25 286.4 358.95 288.9 352.7 291.4 345.85 291.3 332.1 291.1 322.35 280.95 312.6 270.8 312.6 256.75
L 312.6 253.95
Q 321 259.05 330.8 261.75 340.65 264.45 350.9 264.45 355.05 264.45 357.95 261.55 360.9 258.6 360.9 254.45 360.9 250.35 357.95 247.4 355.05 244.45 350.9 244.45 342.45 244.45 334.55 242 326.6 239.6 320.15 235.05 316.6 232.5 314.6 228.55 312.6 224.55 312.6 220.05
L 312.6 209.3
Q 312.6 205.45 315.3 202.75 318 200.05 321.85 200.05
L 350.25 200.05
Q 362.65 200.05 371.45 208.85
M 158 226.15
Q 160.45 232.05 160.45 238.6
L 160.45 261.85
Q 160.45 284.9 144.1 301.2 127.75 317.55 104.7 317.55
L 102.9 317.55
Q 113.35 309.2 121.2 298.2 129.2 286.9 133.85 273.7 135.25 269.8 133.45 266.05 131.65 262.35 127.75 260.95 123.8 259.6 120.1 261.4 116.35 263.15 115 267.1 108 286.9 92.45 300.25 77 313.55 57.5 316.7 74.4 302.25 83.6 282.25 92.8 262.2 92.8 239.9 92.8 225.9 102.8 216 112.75 206.1 126.85 206.1
L 127.95 206.1
Q 134.5 206.1 140.4 208.55 146.35 211 150.95 215.6 155.55 220.2 158 226.15
M 348.3 419.75
Q 350.65 419.75 352.75 418.7
L 373.3 408.4 367.3 460 331 460.1 324.9 409.25 343.8 418.7
Q 345.9 419.75 348.3 419.75 Z"/>
</g>

<g id="Layer2_0_MEMBER_0_MEMBER_0_MEMBER_1_FILL">
<path fill="#000000" stroke="none" d="
M 469.45 82.05
Q 459.3 57.95 440.75 39.4 422.2 20.8 398.2 10.55 373.35 0 346.15 0 328.55 0 311.5 4.6 294.45 9.15 279.25 17.95 256.1 31.45 240 52.5 223.85 31.4 200.7 17.95 185.5 9.15 168.45 4.6 151.4 0 133.8 0 106.6 0 81.75 10.55 57.75 20.8 39.25 39.4 20.7 57.95 10.55 82.05 0 107 0 134.25 0 157.1 8.1 178.4 16.2 199.7 31.35 216.7 34.3 220.05 38.8 220.05 42.6 220.05 45.45 217.5 48.55 214.7 48.8 210.6 49 206.45 46.25 203.4 33.55 189.1 26.75 171.25 20 153.4 20 134.25 20 111.05 28.95 89.85 37.6 69.35 53.35 53.5 69.15 37.7 89.55 29 110.7 20 133.8 20 164 20 189.9 34.7 215.8 49.4 231.4 75.4 232.75 77.65 235.05 78.95 237.35 80.25 240 80.25 242.6 80.25 244.9 78.95 247.2 77.65 248.55 75.4 264.15 49.4 290.05 34.7 315.95 20 346.15 20 369.25 20 390.4 29 410.85 37.7 426.6 53.5 442.4 69.35 451.05 89.85 460 111.05 460 134.25 460 153.4 453.2 171.25 446.4 189.1 433.7 203.35 430.95 206.45 431.2 210.6 431.4 214.7 434.5 217.5 437.6 220.25 441.75 220 445.9 219.8 448.65 216.7 463.8 199.65 471.9 178.4 480 157.1 480 134.25 480 107 469.45 82.05 Z"/>
</g>
</defs>

<g transform="matrix( 0.8708343505859375, 0, 0, 0.8708343505859375, 24,36) ">
<use xlink:href="#Layer2_0_MEMBER_0_MEMBER_0_MEMBER_0_FILL"/>
</g>

<g transform="matrix( 0.8708343505859375, 0, 0, 0.8708343505859375, 24,36) ">
<use xlink:href="#Layer2_0_MEMBER_0_MEMBER_0_MEMBER_1_FILL"/>
</g>
</svg>
