
<svg xmlns="http://www.w3.org/2000/svg" version="1.1" xmlns:xlink="http://www.w3.org/1999/xlink" preserveAspectRatio="none" x="0px" y="0px" width="463px" height="463px" viewBox="0 0 463 463">
<defs>
<g id="Layer0_0_MEMBER_0_MEMBER_0_FILL">
<path fill="#000000" stroke="none" d="
M 282.75 7.65
L 275.05 7.15 272 0.5
Q 272 0 270.95 0 270.65 0 270.25 0.25
L 269.95 0.5 266.35 7.15 259.2 8.15
Q 258.85 8.15 258.5 8.5 258.15 8.85 258.15 9.2 258.15 10.2 258.7 10.75
L 263.3 15.35 261.75 22.5
Q 261.75 23.55 262.25 23.55 262.5 23.55 263.05 23.75 263.5 23.85 263.8 23.55
L 270.45 19.95 277.1 23.55 278.15 23.55
Q 278.55 23.15 278.6 23 278.65 22.9 278.65 22.5
L 277.6 15.35 283.25 10.2
Q 283.75 9.7 283.75 8.7 283.75 8.3 283.45 7.95 283.15 7.65 282.75 7.65 Z"/>
</g>

<g id="Layer0_1_MEMBER_0_MEMBER_0_FILL">
<path fill="#000000" stroke="none" d="
M 27.95 49.45
Q 27.65 49.15 27.25 49.15 26.25 49.15 25.7 49.65
L 20.6 55.3 13.45 54.25
Q 12.4 54.25 12.4 54.75 11.65 55.55 12.4 56.3
L 15.5 61.95 11.9 68.6 11.9 70.15
Q 11.9 70.65 12.9 70.65
L 20.1 69.1 25.5 74.5
Q 25.9 74.75 26.25 74.75
L 26.75 74.75
Q 27.1 74.75 27.45 74.4 27.75 74.1 27.75 73.7
L 28.8 66.55 35.45 62.95
Q 35.95 62.95 35.95 61.95 35.95 61.6 35.7 61.2
L 35.45 60.9 29.3 57.35 28.3 50.15
Q 28.3 49.8 27.95 49.45 Z"/>
</g>

<g id="Layer0_2_MEMBER_0_MEMBER_0_FILL">
<path fill="#000000" stroke="none" d="
M 327.3 269.8
Q 327.3 269.5 327.05 269.1
L 326.75 268.8 325.25 268.8 319.6 273.4 312.45 271.35
Q 311.4 271.35 310.9 271.85 310.15 272.65 310.9 273.4
L 313.45 280.05 309.35 286.2
Q 308.6 286.95 309.35 287.75 309.35 288.25 310.4 288.25
L 318.05 287.75 322.65 293.35
Q 322.65 293.85 323.7 293.85
L 324.2 293.85
Q 324.6 293.85 324.9 293.55 325.25 293.2 325.25 292.85
L 327.3 285.7 334.45 283.1
Q 334.85 283.1 335.15 282.8 335.45 282.5 335.45 282.1 334.9 282.1 334.5 281.85 334.15 281.6 333.95 281.6
L 327.8 277.5 327.3 269.8 Z"/>
</g>

<g id="Layer0_3_MEMBER_0_MEMBER_0_FILL">
<path fill="#000000" stroke="none" d="
M 2.15 216.05
Q 1.4 216.8 2.15 217.6
L 4.7 224.25 0.65 230.4
Q -0.15 231.15 0.65 231.9 0.65 232.45 1.65 232.45
L 9.35 231.9 13.95 237.55
Q 13.95 238.05 14.95 238.05
L 15.5 238.05
Q 15.9 238.05 16.2 237.75 16.5 237.45 16.5 237.05
L 18.55 229.85 25.7 227.3 25.7 226.3
Q 25.7 225.25 25.2 225.25
L 19.05 221.15 18.55 213.5
Q 18.55 213.15 18.3 212.75
L 18.05 212.45 16.5 212.45 10.85 217.05 3.7 215.55
Q 2.7 215.55 2.15 216.05 Z"/>
</g>

<g id="Layer0_4_MEMBER_0_MEMBER_0_FILL">
<path fill="#000000" stroke="none" d="
M 54.9 330.75
L 51.85 324.1
Q 51.85 323.55 50.8 323.55 50.5 323.55 50.1 323.85 49.95 323.95 49.8 324.1
L 46.2 330.75 39.05 331.75
Q 38.65 331.75 38.3 332.05 38 332.4 38 332.8 38 333.8 38.5 334.3
L 43.65 339.45 42.1 346.6
Q 42.1 347.65 42.6 347.65 43.4 348.45 44.15 347.65
L 50.8 344.05 57.45 347.65 58.5 347.65
Q 58.9 347.25 58.95 347.1 59 347 59 346.6
L 57.95 339.45 63.6 334.3
Q 64.1 333.8 64.1 332.8 63.55 332.8 63.15 332.55 62.8 332.25 62.6 332.25
L 54.9 330.75 Z"/>
</g>

<g id="Layer0_5_MEMBER_0_MEMBER_0_FILL">
<path fill="#000000" stroke="none" d="
M 170.25 1.4
Q 168.8 0 166.5 0 164.2 0 162.8 1.4 161.4 2.8 161.4 5.1
L 161.4 148.95
Q 161.4 151.2 163 152.7 164.5 154.1 166.5 154.1 168.85 154.1 170.25 152.7 171.65 151.3 171.65 148.95
L 171.65 5.1
Q 171.65 2.8 170.25 1.4 Z"/>
</g>

<g id="Layer0_6_MEMBER_0_MEMBER_0_FILL">
<path fill="#000000" stroke="none" d="
M 161.4 231.4
L 161.4 346.6
Q 161.4 348.9 162.8 350.3 164.2 351.7 166.5 351.7 168.85 351.7 170.25 350.3 171.65 348.9 171.65 346.6
L 171.65 231.4
Q 171.65 229.1 170.25 227.7 168.8 226.3 166.5 226.3 164.2 226.3 162.8 227.7 161.4 229.1 161.4 231.4 Z"/>
</g>

<g id="Layer0_7_MEMBER_0_MEMBER_0_FILL">
<path fill="#000000" stroke="none" d="
M 123.45 69.8
Q 122.75 71.75 123.5 73.7
L 145 133.6
Q 145.35 135.15 146.7 136.15 148.05 137.2 149.6 137.2 150.65 137.2 151.15 136.7 153.1 135.9 154.05 133.95 155 131.95 154.25 130.05
L 132.7 70.15
Q 131.95 68.2 130 67.25 128 66.3 126.05 67.05 124.15 67.8 123.45 69.8 Z"/>
</g>

<g id="Layer0_8_MEMBER_0_MEMBER_0_FILL">
<path fill="#000000" stroke="none" d="
M 108.35 33.95
Q 107.4 35.95 108.15 37.85
L 115.85 56.8
Q 117.35 59.9 120.45 59.9 121.45 59.9 122.5 59.35 124.45 58.6 125.4 56.65 126.35 54.6 125.55 52.7
L 117.9 34.3
Q 117.1 32.35 115.15 31.4 113.1 30.45 111.2 31.2 109.25 32 108.35 33.95 Z"/>
</g>

<g id="Layer0_9_MEMBER_0_MEMBER_0_FILL">
<path fill="#000000" stroke="none" d="
M 171.85 208.05
Q 170.85 210.05 171.65 211.95
L 199.8 290.3
Q 200.15 291.8 201.5 292.85 202.85 293.85 204.4 293.85 205.45 293.85 205.95 293.35 207.9 292.6 208.85 290.6 209.8 288.6 209 286.7
L 181.35 208.35
Q 180.6 206.4 178.6 205.5 176.6 204.5 174.7 205.3 172.75 206.05 171.85 208.05 Z"/>
</g>

<g id="Layer0_10_MEMBER_0_MEMBER_0_FILL">
<path fill="#000000" stroke="none" d="
M 58.2 55.3
Q 58 57.35 59.5 58.85
L 151.65 170.5
Q 153.8 172.55 155.75 172.55 156.65 172.55 158.85 171.5 160.45 169.9 160.65 167.95 160.85 165.85 159.35 164.35
L 67.2 52.2
Q 65.6 50.6 63.6 50.4 61.5 50.2 60 51.7 58.4 53.3 58.2 55.3 Z"/>
</g>

<g id="Layer0_11_MEMBER_0_MEMBER_0_FILL">
<path fill="#000000" stroke="none" d="
M 192.9 223.25
Q 192.65 225.3 194.15 226.8
L 265.85 314.35
Q 267.9 316.4 269.95 316.4 271.1 316.4 273 315.35 274.6 313.8 274.8 311.8 275 309.7 273.5 308.2
L 201.85 220.15
Q 200.25 218.55 198.25 218.35 196.15 218.15 194.7 219.65 193.1 221.25 192.9 223.25 Z"/>
</g>

<g id="Layer0_12_MEMBER_0_MEMBER_0_FILL">
<path fill="#000000" stroke="none" d="
M 43.35 110.9
Q 43.8 113 45.7 114.15
L 116.35 156.65
Q 117.35 157.15 118.9 157.15 120.1 157.15 121.4 156.45 122.75 155.75 123.5 154.6 124.6 152.75 124.1 150.65 123.55 148.65 121.95 147.45
L 51.3 104.95
Q 49.45 103.85 47.35 104.4 45.4 104.9 44.15 106.5 42.95 108.8 43.35 110.9 Z"/>
</g>

<g id="Layer0_13_MEMBER_0_MEMBER_0_FILL">
<path fill="#000000" stroke="none" d="
M 170.05 188.8
Q 170.55 190.8 172.15 192
L 286.85 260.6
Q 287.85 261.1 289.4 261.1 290.6 261.1 291.9 260.4 293.25 259.7 294 258.55 295.55 257 295.25 255 294.9 253.05 293 251.9
L 177.8 183.3
Q 175.95 182.2 173.8 182.7 171.8 183.2 170.6 184.8 169.5 186.65 170.05 188.8 Z"/>
</g>

<g id="Layer0_14_MEMBER_0_MEMBER_0_FILL">
<path fill="#000000" stroke="none" d="
M 2.45 144.55
Q 0.5 145.75 0.1 147.95 -0.3 150.3 0.8 152 1.95 153.75 4.2 154.1
L 118.4 176.6 119.4 176.6
Q 121.35 176.6 122.75 175.55 124.15 174.45 124.55 172.55 124.95 170.5 123.85 168.7 122.65 166.75 120.45 166.4
L 6.25 143.85
Q 4.25 143.45 2.45 144.55 Z"/>
</g>

<g id="Layer0_15_MEMBER_0_MEMBER_0_FILL">
<path fill="#000000" stroke="none" d="
M 213.3 195.3
Q 214.5 197.25 216.7 197.6
L 316 217.05 317.05 217.05
Q 319 217.05 320.35 216 321.8 214.85 322.15 212.95 322.6 210.95 321.45 209.15 320.3 207.2 318.05 206.85
L 218.75 187.35
Q 216.4 186.95 214.7 188.05 212.95 189.2 212.6 191.45 212.2 193.5 213.3 195.3 Z"/>
</g>

<g id="Layer0_16_MEMBER_0_MEMBER_0_FILL">
<path fill="#000000" stroke="none" d="
M 198.25 181.25
L 198.75 181.25 268.4 171
Q 270.3 170.25 271.4 168.5 272.5 166.8 272.5 164.85 272.1 162.9 270.45 161.65 268.75 160.4 266.85 160.75
L 197.25 171
Q 195.3 171.4 194.05 173.05 192.8 174.7 193.15 176.6 193.55 178.6 194.95 179.9 196.35 181.25 198.25 181.25 Z"/>
</g>

<g id="Layer0_17_MEMBER_0_MEMBER_0_FILL">
<path fill="#000000" stroke="none" d="
M 55.3 193.55
Q 54.05 195.2 54.4 197.1 54.8 199.05 56.2 200.35 57.65 201.7 59.5 201.7
L 60 201.7 141.95 189.4
Q 143.9 189 145.15 187.35 146.4 185.7 146.05 183.8 145.65 181.85 144 180.6 142.3 179.35 140.4 179.7
L 58.5 191.45
Q 56.5 191.85 55.3 193.55 Z"/>
</g>

<g id="Layer0_18_MEMBER_0_MEMBER_0_FILL">
<path fill="#000000" stroke="none" d="
M 283.1 160.25
Q 281.85 161.95 282.25 163.8 282.65 165.8 284.05 167.1 285.45 168.45 287.35 168.45 287.35 168.05 287.4 167.95 287.5 167.9 287.85 167.9
L 294 166.9
Q 295.95 166.5 297.2 164.85 298.45 163.15 298.1 161.25 297.7 159.3 296.05 158.05 294.35 156.8 292.45 157.15
L 286.3 158.2
Q 284.35 158.6 283.1 160.25 Z"/>
</g>

<g id="Layer0_19_MEMBER_0_MEMBER_0_FILL">
<path fill="#000000" stroke="none" d="
M 34.95 195.05
Q 32.95 195.45 31.7 197.1 30.45 198.8 30.85 200.7 31.25 202.65 32.65 203.95 34.1 205.3 35.95 205.3
L 36.45 205.3 42.6 204.25
Q 44.55 203.85 45.8 202.2 47.05 200.55 46.7 198.65 46.3 196.7 44.65 195.45 43 194.2 41.1 194.55
L 34.95 195.05 Z"/>
</g>

<g id="Layer0_20_MEMBER_0_MEMBER_0_FILL">
<path fill="#000000" stroke="none" d="
M 311.3 98.3
Q 309.2 97.65 307.3 98.8
L 211.55 150.5
Q 209.6 151.7 209 153.7 208.4 155.8 209.5 157.7 211.3 160.25 214.15 160.25 215.65 160.25 216.7 159.75
L 312.45 108
Q 314.4 106.85 315 104.8 315.6 102.75 314.5 100.85 313.3 98.9 311.3 98.3 Z"/>
</g>

<g id="Layer0_21_MEMBER_0_MEMBER_0_FILL">
<path fill="#000000" stroke="none" d="
M 129.15 206.2
Q 129.75 204.15 128.65 202.2 127.45 200.25 125.45 199.65 123.35 199.05 121.45 200.15
L 25.7 251.9
Q 23.75 253.05 23.15 255.1 22.55 257.15 23.65 259.05 25.4 261.6 28.3 261.6 29.8 261.6 30.85 261.1
L 126.6 209.4
Q 128.55 208.2 129.15 206.2 Z"/>
</g>

<g id="Layer0_22_MEMBER_0_MEMBER_0_FILL">
<path fill="#000000" stroke="none" d="
M 266.1 75.75
Q 265.9 73.75 264.3 72.15 262.8 70.7 260.75 70.9 258.75 71.1 257.15 72.7
L 173.7 165.35
Q 172.2 166.85 172.4 168.95 172.6 170.95 174.2 172.55 176.2 173.55 177.8 173.55 179.9 173.55 181.35 172
L 264.8 79.35
Q 266.3 77.85 266.1 75.75 Z"/>
</g>

<g id="Layer0_23_MEMBER_0_MEMBER_0_FILL">
<path fill="#000000" stroke="none" d="
M 163.95 188.9
Q 163.95 186.85 162.4 185.35 160.9 183.85 158.85 184.05 156.85 184.25 155.25 185.85
L 71.3 278
Q 69.8 279.5 70 281.6 70.2 283.55 71.8 285.15 73.3 286.7 75.4 286.7 77.5 286.7 78.95 285.15
L 162.4 192.5
Q 163.95 190.95 163.95 188.9 Z"/>
</g>

<g id="Layer0_24_MEMBER_0_MEMBER_0_FILL">
<path fill="#000000" stroke="none" d="
M 70 294.4
Q 69.8 292.4 68.2 290.8 66.75 288.95 64.65 289.1 62.7 289.15 61.05 290.8
L 51.85 301.05
Q 50.35 302.55 50.55 304.65 50.75 306.6 52.35 308.2 53.85 309.75 55.9 309.75 58.05 309.75 59.5 308.2
L 68.7 297.95
Q 70.2 296.45 70 294.4 Z"/>
</g>

<g id="Layer0_25_MEMBER_0_MEMBER_0_FILL">
<path fill="#000000" stroke="none" d="
M 287.35 46.55
Q 285.85 45.1 283.8 45.3 281.8 45.5 280.2 47.1
L 270.95 56.8
Q 269.45 58.3 269.7 60.4 269.9 62.4 271.5 64 273 65.5 275.05 65.5 277.1 65.5 278.65 64
L 287.85 53.75
Q 289.35 52.25 289.15 50.15 288.95 48.15 287.35 46.55 Z"/>
</g>

<g id="Layer0_26_MEMBER_0_MEMBER_0_FILL">
<path fill="#000000" stroke="none" d="
M 233.15 28.35
Q 232.4 26.35 230.5 25.6 228.55 24.8 226.6 25.55 224.65 26.25 223.85 28.15
L 189.55 112.1
Q 188.45 114.3 189.3 116.2 190.05 117.95 192.1 118.75 192.65 119.3 194.15 119.3 195.8 119.3 197.05 118.5 198.4 117.65 198.75 116.2
L 233.1 32.25
Q 233.85 30.3 233.15 28.35 Z"/>
</g>

<g id="Layer0_27_MEMBER_0_MEMBER_0_FILL">
<path fill="#000000" stroke="none" d="
M 160.1 213.35
Q 159.35 211.65 157.3 210.4 155.35 209.65 153.4 210.35 151.4 211.1 150.65 212.95
L 108.65 314.35
Q 107.9 316.3 108.6 318.25 109.35 320.25 111.2 321 111.75 321.5 113.25 321.5 114.9 321.5 116.15 320.75 117.5 319.9 117.9 318.45
L 159.85 217.05
Q 160.95 215.25 160.1 213.35 Z"/>
</g>

<path id="Layer2_0_1_STROKES" stroke="#000000" stroke-width="8" stroke-linejoin="round" stroke-linecap="round" fill="none" d="
M 228 192.05
Q 145.1 307.6 125 455"/>

<path id="Layer1_0_1_STROKES" stroke="#000000" stroke-width="8" stroke-linejoin="round" stroke-linecap="round" fill="none" d="
M 179 342
Q 156.863671875 395.752734375 152 451"/>
</defs>

<g transform="matrix( 1, 0, 0, 1, 0,0) ">
<use xlink:href="#Layer2_0_1_STROKES"/>
</g>

<g transform="matrix( 1, 0, 0, 1, 0,0) ">
<use xlink:href="#Layer1_0_1_STROKES"/>
</g>

<g transform="matrix( 1, 0, 0, 1, 68.55,4) ">
<use xlink:href="#Layer0_0_MEMBER_0_MEMBER_0_FILL"/>
</g>

<g transform="matrix( 1, 0, 0, 1, 68.55,4) ">
<use xlink:href="#Layer0_1_MEMBER_0_MEMBER_0_FILL"/>
</g>

<g transform="matrix( 1, 0, 0, 1, 68.55,4) ">
<use xlink:href="#Layer0_2_MEMBER_0_MEMBER_0_FILL"/>
</g>

<g transform="matrix( 1, 0, 0, 1, 68.55,4) ">
<use xlink:href="#Layer0_3_MEMBER_0_MEMBER_0_FILL"/>
</g>

<g transform="matrix( 1, 0, 0, 1, 68.55,4) ">
<use xlink:href="#Layer0_4_MEMBER_0_MEMBER_0_FILL"/>
</g>

<g transform="matrix( 1, 0, 0, 1, 68.55,4) ">
<use xlink:href="#Layer0_5_MEMBER_0_MEMBER_0_FILL"/>
</g>

<g transform="matrix( 1, 0, 0, 1, 68.55,4) ">
<use xlink:href="#Layer0_6_MEMBER_0_MEMBER_0_FILL"/>
</g>

<g transform="matrix( 1, 0, 0, 1, 68.55,4) ">
<use xlink:href="#Layer0_7_MEMBER_0_MEMBER_0_FILL"/>
</g>

<g transform="matrix( 1, 0, 0, 1, 68.55,4) ">
<use xlink:href="#Layer0_8_MEMBER_0_MEMBER_0_FILL"/>
</g>

<g transform="matrix( 1, 0, 0, 1, 68.55,4) ">
<use xlink:href="#Layer0_9_MEMBER_0_MEMBER_0_FILL"/>
</g>

<g transform="matrix( 1, 0, 0, 1, 68.55,4) ">
<use xlink:href="#Layer0_10_MEMBER_0_MEMBER_0_FILL"/>
</g>

<g transform="matrix( 1, 0, 0, 1, 68.55,4) ">
<use xlink:href="#Layer0_11_MEMBER_0_MEMBER_0_FILL"/>
</g>

<g transform="matrix( 1, 0, 0, 1, 68.55,4) ">
<use xlink:href="#Layer0_12_MEMBER_0_MEMBER_0_FILL"/>
</g>

<g transform="matrix( 1, 0, 0, 1, 68.55,4) ">
<use xlink:href="#Layer0_13_MEMBER_0_MEMBER_0_FILL"/>
</g>

<g transform="matrix( 1, 0, 0, 1, 68.55,4) ">
<use xlink:href="#Layer0_14_MEMBER_0_MEMBER_0_FILL"/>
</g>

<g transform="matrix( 1, 0, 0, 1, 68.55,4) ">
<use xlink:href="#Layer0_15_MEMBER_0_MEMBER_0_FILL"/>
</g>

<g transform="matrix( 1, 0, 0, 1, 68.55,4) ">
<use xlink:href="#Layer0_16_MEMBER_0_MEMBER_0_FILL"/>
</g>

<g transform="matrix( 1, 0, 0, 1, 68.55,4) ">
<use xlink:href="#Layer0_17_MEMBER_0_MEMBER_0_FILL"/>
</g>

<g transform="matrix( 1, 0, 0, 1, 68.55,4) ">
<use xlink:href="#Layer0_18_MEMBER_0_MEMBER_0_FILL"/>
</g>

<g transform="matrix( 1, 0, 0, 1, 68.55,4) ">
<use xlink:href="#Layer0_19_MEMBER_0_MEMBER_0_FILL"/>
</g>

<g transform="matrix( 1, 0, 0, 1, 68.55,4) ">
<use xlink:href="#Layer0_20_MEMBER_0_MEMBER_0_FILL"/>
</g>

<g transform="matrix( 1, 0, 0, 1, 68.55,4) ">
<use xlink:href="#Layer0_21_MEMBER_0_MEMBER_0_FILL"/>
</g>

<g transform="matrix( 1, 0, 0, 1, 68.55,4) ">
<use xlink:href="#Layer0_22_MEMBER_0_MEMBER_0_FILL"/>
</g>

<g transform="matrix( 1, 0, 0, 1, 68.55,4) ">
<use xlink:href="#Layer0_23_MEMBER_0_MEMBER_0_FILL"/>
</g>

<g transform="matrix( 1, 0, 0, 1, 68.55,4) ">
<use xlink:href="#Layer0_24_MEMBER_0_MEMBER_0_FILL"/>
</g>

<g transform="matrix( 1, 0, 0, 1, 68.55,4) ">
<use xlink:href="#Layer0_25_MEMBER_0_MEMBER_0_FILL"/>
</g>

<g transform="matrix( 1, 0, 0, 1, 68.55,4) ">
<use xlink:href="#Layer0_26_MEMBER_0_MEMBER_0_FILL"/>
</g>

<g transform="matrix( 1, 0, 0, 1, 68.55,4) ">
<use xlink:href="#Layer0_27_MEMBER_0_MEMBER_0_FILL"/>
</g>
</svg>
