<svg xmlns="http://www.w3.org/2000/svg" version="1.1" xmlns:xlink="http://www.w3.org/1999/xlink" xmlns:svgjs="http://svgjs.com/svgjs" width="512" height="512" x="0" y="0" viewBox="0 0 48 48" style="enable-background:new 0 0 512 512" xml:space="preserve" class=""><g><path xmlns="http://www.w3.org/2000/svg" d="m39 16h-18c-.55 0-1 .45-1 1v8h-12v-14c0-.55-.45-1-1-1h-3c-.55 0-1 .45-1 1v26c0 .55.45 1 1 1h3c.55 0 1-.45 1-1v-5h32v5c0 .55.45 1 1 1h3c.55 0 1-.45 1-1v-15c0-3.31-2.69-6-6-6zm-19 14h-13c-.55 0-1 .45-1 1v5h-1v-24h1v14c0 .55.45 1 1 1h13zm23 6h-1v-5c0-.55-.45-1-1-1h-19v-12h17c2.21 0 4 1.79 4 4z" fill="#000000" data-original="#000000" class=""></path><path xmlns="http://www.w3.org/2000/svg" d="m9 19c0 2.76 2.24 5 5 5s5-2.24 5-5-2.24-5-5-5-5 2.24-5 5zm8 0c0 1.65-1.35 3-3 3s-3-1.35-3-3 1.35-3 3-3 3 1.35 3 3z" fill="#000000" data-original="#000000" class=""></path></g></svg>