
<svg xmlns="http://www.w3.org/2000/svg" version="1.1" xmlns:xlink="http://www.w3.org/1999/xlink" preserveAspectRatio="none" x="0px" y="0px" width="463px" height="463px" viewBox="0 0 463 463">
<defs>
<g id="Layer0_0_MEMBER_0_MEMBER_0_FILL">
<path fill="#000000" stroke="none" d="
M 360.05 197.75
Q 358.95 195.3 356.5 194.3 332.2 184.6 305.7 184.6 285.95 184.6 267.2 190.05 248.45 195.6 231.9 206.15 218.05 197.25 202.05 191.85
L 233.75 153.6
Q 236.65 150.15 236.9 145.7 237.15 141.25 234.6 137.5
L 211.4 102.45
Q 209.5 99.6 206.5 98 203.5 96.35 200.1 96.35
L 116.5 96.35
Q 113.05 96.35 110.05 98 107.05 99.6 105.15 102.45
L 81.95 137.5
Q 79.45 141.25 79.7 145.7 79.95 150.15 82.8 153.6
L 114.45 191.8
Q 94.3 198.6 77.1 211.3 60.05 223.8 47.6 240.9 21.35 276.75 21.35 321.3 21.35 349.05 32.15 374.45 42.55 398.95 61.5 417.95 80.5 436.85 105.05 447.25 130.45 458 158.3 458 178.3 458 197.35 452.35 215.75 446.85 232 436.45 248.3 446.85 266.65 452.35 285.7 458 305.7 458 333.55 458 358.95 447.25 383.55 436.85 402.55 417.95 421.5 398.95 431.9 374.45 442.7 349.05 442.7 321.3 442.7 285.7 425.6 254.9 408.45 224.15 378.15 205.25 375.9 203.85 373.3 204.45 370.7 205.05 369.3 207.3 367.85 209.6 368.45 212.2 369.1 214.8 371.35 216.2 398.8 233.3 414.25 261.15 429.8 289.05 429.8 321.3 429.8 346.45 420.05 369.45 410.55 391.65 393.4 408.8 376.2 425.9 353.95 435.35 330.9 445.1 305.7 445.1 280.5 445.1 257.45 435.35 235.2 425.9 218.05 408.8 200.85 391.65 191.4 369.45 181.65 346.45 181.65 321.3 181.65 301.1 188.1 281.95 194.55 262.75 206.7 246.75 216 252.75 223.65 261 214 274.1 208.9 289.55 203.75 305.05 203.75 321.3 203.75 341.95 211.8 360.85 219.5 379.15 233.65 393.25 247.8 407.35 266.05 415.05 285 423.1 305.7 423.1 326.4 423.1 345.35 415.05 363.65 407.35 377.75 393.25 391.95 379.15 399.65 360.85 407.7 341.95 407.7 321.3 407.7 300.65 399.65 281.75 391.95 263.45 377.75 249.35 363.65 235.3 345.35 227.55 326.4 219.55 305.7 219.55 293.9 219.55 282.4 222.25 270.85 224.95 260.35 230.2 252.75 221.7 243.35 214.25 257.55 206.05 273.35 201.75 289.2 197.5 305.7 197.5 329.75 197.5 351.7 206.3 354.2 207.25 356.65 206.25 359.15 205.15 360.1 202.7 361.1 200.2 360.05 197.75
M 368.65 258.45
Q 381 270.8 387.75 286.7 394.75 303.2 394.75 321.3 394.75 339.35 387.75 355.85 381 371.8 368.65 384.1 356.35 396.4 340.35 403.15 323.85 410.15 305.7 410.15 286.2 410.15 268.7 402.1 281.45 384.8 288.25 364.55 295.25 343.6 295.25 321.3 295.25 303.15 290.6 285.85 289.9 283.25 287.6 281.95 285.25 280.6 282.7 281.3 280.15 281.95 278.8 284.3 277.45 286.6 278.15 289.2 282.35 304.85 282.35 321.3 282.35 341.9 275.7 361.3 269.3 380 257.3 395.85 247.9 389.75 240.4 381.6 249.9 368.75 255 353.6 260.25 337.95 260.25 321.3 260.25 300.65 252.25 281.75 244.5 263.45 230.4 249.35 216.25 235.3 197.95 227.55 179 219.55 158.3 219.55 137.6 219.55 118.65 227.55 100.35 235.3 86.25 249.35 72.15 263.45 64.35 281.75 56.35 300.65 56.35 321.3 56.35 342.85 65.15 362.65 74 382.45 90.1 396.9 92.1 398.7 94.75 398.55 97.4 398.4 99.2 396.4 101 394.45 100.85 391.75 100.7 389.15 98.75 387.35 84.7 374.7 77 357.4 69.25 340.15 69.25 321.3 69.25 303.2 76.25 286.7 83.05 270.8 95.35 258.5 107.7 246.2 123.7 239.45 140.25 232.45 158.3 232.45 177.85 232.45 195.3 240.45 182.4 258 175.55 278.75 168.75 299.5 168.75 321.3 168.75 343.6 175.8 364.55 182.55 384.8 195.3 402.1 177.8 410.15 158.3 410.15 137.85 410.15 119.55 401.3 117.15 400.15 114.65 401.05 112.1 401.95 110.95 404.3 109.8 406.7 110.7 409.25 111.55 411.75 113.95 412.9 134.9 423.1 158.3 423.1 182.25 423.1 203.7 412.4 211.6 421.2 220.6 428.3 206.6 436.45 191.1 440.7 175.05 445.1 158.3 445.1 133.1 445.1 110.05 435.35 87.8 425.9 70.6 408.8 53.45 391.65 44 369.45 34.25 346.45 34.25 321.3 34.25 296.15 44 273.15 53.45 250.95 70.6 233.8 87.8 216.65 110.05 207.25 133.1 197.5 158.3 197.5 194.55 197.5 225.25 217.15 255.95 236.75 271.05 269.55 272.2 272 274.7 272.95 277.2 273.85 279.65 272.75 282.05 271.6 282.95 269.1 283.85 266.6 282.75 264.15 276.85 251.4 268.75 240.45 286.4 232.4 305.7 232.4 323.8 232.4 340.35 239.4 356.35 246.15 368.65 258.45
M 203.9 114.5
L 220.15 139 190 139 188.8 137.25 203.9 114.5
M 181.1 125.55
L 170.35 109.3 191.85 109.3 181.1 125.55
M 183.9 169.55
Q 185.6 168.35 186.25 166.3
L 191.05 151.9 218.45 151.9 188.5 188
Q 173.45 184.6 158.3 184.6 154.15 184.6 150 184.85
L 139.15 151.9 177.45 151.9 174.05 162.3
Q 173.2 164.8 174.4 167.25 175.55 169.6 178.1 170.45 179.25 170.75 180.15 170.75 182.2 170.75 183.9 169.55
M 124.7 109.3
L 146.25 109.3 135.5 125.55 124.7 109.3
M 127.75 137.25
L 126.55 139 96.45 139 112.7 114.5 127.75 137.25
M 142.05 139
L 158.3 114.5 174.55 139 142.05 139
M 136.9 186.3
Q 132.65 186.95 128.05 187.95
L 98.15 151.9 125.55 151.9 136.9 186.3
M 220.6 295.2
Q 224.55 282.5 232.05 271.5 239.45 282.35 243.35 294.8 247.35 307.7 247.35 321.3 247.35 334.9 243.35 347.85 239.4 360.3 232 371.1 224.6 360.25 220.65 347.85 216.65 334.9 216.65 321.3 216.65 308 220.6 295.2 Z"/>
</g>
</defs>

<g transform="matrix( 1, 0, 0, 1, 0,0) ">
<use xlink:href="#Layer0_0_MEMBER_0_MEMBER_0_FILL"/>
</g>
</svg>
