
<svg xmlns="http://www.w3.org/2000/svg" version="1.1" xmlns:xlink="http://www.w3.org/1999/xlink" preserveAspectRatio="none" x="0px" y="0px" width="463px" height="463px" viewBox="0 0 463 463">
<defs>
<g id="Layer0_0_MEMBER_0_MEMBER_0_FILL">
<path fill="#000000" stroke="none" d="
M 389.4 48
L 378.5 37.1 344.55 71.05 355.45 81.95 389.4 48 Z"/>
</g>

<g id="Layer0_0_MEMBER_0_MEMBER_1_FILL">
<path fill="#000000" stroke="none" d="
M 376.1 116.1
L 381.4 130.6 426.5 114.05 421.15 99.55 376.1 116.1 Z"/>
</g>

<g id="Layer0_0_MEMBER_0_MEMBER_2_FILL">
<path fill="#000000" stroke="none" d="
M 312.45 0.05
L 295.9 45.1 310.4 50.4 326.95 5.35 312.45 0.05 Z"/>
</g>

<g id="Layer0_0_MEMBER_0_MEMBER_3_FILL">
<path fill="#000000" stroke="none" d="
M 249.25 77.6
Q 247.6 72.85 245.95 69.8 243.2 64.6 238.9 60.3 233.4 54.8 226.35 51.8 219.25 48.85 211.55 48.75 203.8 48.7 196.7 51.6 189.6 54.5 184.1 60.05 178.2 65.95 175.3 73.45 173.05 79.4 172.35 87.55 164 88.2 158.1 90.5 150.8 93.3 144.9 99.2 139.4 104.7 136.5 111.8 133.6 118.9 133.65 126.65 133.75 134.35 136.75 141.4 139.75 148.5 145.25 154 149.8 158.55 154.95 161.3 157.95 162.9 162.8 164.5
L 163.05 164.6
Q 171.9 167.6 194.2 167.6 207.85 167.6 225.15 166.5 236.05 165.8 243.05 165.1
L 249.4 164.5 250 158.15
Q 251.7 140.2 252.3 122.4 253.45 89.25 249.45 78.05
L 249.25 77.6
M 195 70.95
Q 198.25 67.65 202.45 65.9 206.6 64.15 211.2 64.15
L 211.45 64.15
Q 216.1 64.25 220.4 66.05 224.65 67.85 228 71.2 230.75 73.95 232.45 77.15 233.45 79.05 234.75 82.75
L 234.9 83.25
Q 237.3 90.05 237.1 111.85 236.9 129.55 235.2 150.3 214.6 151.95 196.8 152.15 174.95 152.35 168 150
L 167.7 149.9
Q 164.1 148.7 162.2 147.65 159.1 146 156.15 143.1 152.8 139.75 150.95 135.45 149.15 131.15 149.1 126.5 149.05 121.9 150.75 117.65 152.5 113.4 155.8 110.1 160.35 105.6 166.35 104.05 170.8 102.85 180 102.6
L 187.35 102.35 187.45 95.05
Q 187.65 85.9 189.05 81.05 190.7 75.25 195 70.95 Z"/>
</g>

<g id="Layer0_0_MEMBER_0_MEMBER_4_FILL">
<path fill="#000000" stroke="none" d="
M 332.55 97.15
Q 330.45 92.2 326.3 88.1 317.75 79.5 305.55 79.6 293.35 79.65 284.7 88.3 281.25 91.75 279.15 95.65 278 97.85 276.75 101.5
L 276.7 101.65
Q 273.95 109.8 274.6 132.2 275 145.45 276.25 158.6
L 276.85 164.95 283.15 165.55
Q 301.65 167.4 317.5 167.4 333.65 167.4 340.25 165.05
L 340.6 164.95
Q 344.3 163.6 346.4 162.5 350.3 160.4 353.55 157.15 357.75 152.95 360 147.6 362.25 142.25 362.3 136.4 362.35 130.45 360.15 125.1 357.95 119.7 353.75 115.5 346.45 108.2 334.95 106.85 334.35 101.3 332.55 97.15
M 346.9 136.25
Q 346.8 142.1 342.65 146.25 341 147.9 339 148.95 337.8 149.55 335.4 150.4
L 335.1 150.55
Q 330.9 152.05 317 151.95 305.3 151.9 291.05 150.8 290 136.75 289.9 124.9 289.85 110.95 291.3 106.6
L 291.4 106.45
Q 292.2 104 292.8 102.9 293.8 101 295.6 99.2 299.8 95 305.55 94.95 311.3 94.9 315.4 99 318.1 101.7 319.05 105.2 319.8 108 320 114.35
L 320.2 121.65 327.55 121.8
Q 333.5 121.9 336.55 122.75 340.2 123.75 342.85 126.4 346.9 130.45 346.9 136.25 Z"/>
</g>

<g id="Layer0_0_MEMBER_0_MEMBER_5_FILL">
<path fill="#000000" stroke="none" d="
M 72.5 352.5
Q 62.85 362.15 62.85 375.75 62.85 389.35 72.5 399 82.15 408.65 95.75 408.65 109.35 408.65 118.95 399 128.6 389.35 128.6 375.75 128.6 362.15 118.95 352.5 109.35 342.85 95.75 342.85 82.15 342.85 72.5 352.5
M 108.1 388.1
Q 102.95 393.2 95.75 393.2 88.5 393.2 83.4 388.1 78.25 383 78.25 375.75 78.25 368.5 83.4 363.4 88.5 358.3 95.75 358.3 102.95 358.3 108.1 363.4 113.2 368.5 113.2 375.75 113.2 383 108.1 388.1 Z"/>
</g>

<g id="Layer0_0_MEMBER_0_MEMBER_6_FILL">
<path fill="#000000" stroke="none" d="
M 362.15 352.5
Q 352.5 362.15 352.5 375.75 352.5 389.35 362.15 399 371.8 408.65 385.4 408.65 399 408.65 408.65 399 418.3 389.35 418.3 375.75 418.3 362.15 408.65 352.5 399 342.85 385.4 342.85 371.8 342.85 362.15 352.5
M 397.75 388.1
Q 392.65 393.2 385.4 393.2 378.15 393.2 373.05 388.1 367.95 383 367.95 375.75 367.95 368.5 373.05 363.4 378.15 358.3 385.4 358.3 392.65 358.3 397.75 363.4 402.85 368.5 402.85 375.75 402.85 383 397.75 388.1 Z"/>
</g>

<g id="Layer0_0_MEMBER_0_MEMBER_7_FILL">
<path fill="#000000" stroke="none" d="
M 470.15 249.5
Q 459.65 249.5 452.25 256.9 444.8 264.35 444.8 274.8 444.8 283.1 449.75 289.8
L 445.2 295.45 415.7 188.45 80.25 188.45 50.75 295.45 46.2 289.8
Q 51.15 283.1 51.15 274.8 51.15 264.35 43.75 256.9 36.3 249.5 25.85 249.5 15.35 249.5 7.95 256.9 0.5 264.35 0.5 274.8 0.5 285.3 7.95 292.75 15.35 300.15 25.85 300.15 29.85 300.15 33.7 298.9
L 38.1 304.3 19.9 304.3 19.9 447.2 43.1 447.2 43.1 512.05 109.1 512.05 109.1 447.2 386.85 447.2 386.85 512.05 452.85 512.05 452.85 447.2 476.05 447.2 476.05 304.3 457.85 304.3 462.25 298.9
Q 466.15 300.15 470.15 300.15 480.6 300.15 488.05 292.75 495.45 285.3 495.45 274.8 495.45 264.35 488.05 256.9 480.6 249.5 470.15 249.5
M 470.15 264.9
Q 474.25 264.9 477.15 267.8 480.05 270.7 480.05 274.8 480.05 278.9 477.15 281.8 474.25 284.7 470.15 284.7 466.05 284.7 463.15 281.8 460.25 278.95 460.25 274.8 460.25 270.7 463.15 267.8 466.05 264.9 470.15 264.9
M 403.95 203.85
L 431.65 304.3 64.35 304.3 92 203.85 403.95 203.85
M 25.85 264.9
Q 29.95 264.9 32.85 267.8 35.75 270.7 35.75 274.8 35.75 278.9 32.85 281.8 29.95 284.7 25.85 284.7 21.7 284.7 18.8 281.8 15.9 278.9 15.9 274.8 15.9 270.7 18.8 267.8 21.75 264.9 25.85 264.9
M 93.7 447.2
L 93.7 496.6 58.55 496.6 58.55 447.2 93.7 447.2
M 437.45 447.2
L 437.45 496.6 402.25 496.6 402.25 447.2 437.45 447.2
M 460.65 431.75
L 35.3 431.75 35.3 319.75 460.65 319.75 460.65 431.75 Z"/>
</g>

<g id="Layer0_0_MEMBER_0_MEMBER_8_FILL">
<path fill="#000000" stroke="none" d="
M 281.65 234.75
L 270.75 245.65 314.35 289.25 325.25 278.35 281.65 234.75 Z"/>
</g>

<g id="Layer0_0_MEMBER_0_MEMBER_9_FILL">
<path fill="#000000" stroke="none" d="
M 185.25 231.05
L 174.35 242 209.45 277.1 220.35 266.2 185.25 231.05 Z"/>
</g>

<g id="Layer0_0_MEMBER_0_MEMBER_10_FILL">
<path fill="#000000" stroke="none" d="
M 328.95 368.05
L 328.95 358.3 167 358.3 167 368.05 328.95 368.05
M 328.95 393.2
L 328.95 383.45 167 383.45 167 393.2 328.95 393.2 Z"/>
</g>
</defs>

<g transform="matrix( 0.852386474609375, 0, 0, 0.852386474609375, 24.15,21.55) ">
<use xlink:href="#Layer0_0_MEMBER_0_MEMBER_0_FILL"/>
</g>

<g transform="matrix( 0.852386474609375, 0, 0, 0.852386474609375, 24.15,21.55) ">
<use xlink:href="#Layer0_0_MEMBER_0_MEMBER_1_FILL"/>
</g>

<g transform="matrix( 0.852386474609375, 0, 0, 0.852386474609375, 24.15,21.55) ">
<use xlink:href="#Layer0_0_MEMBER_0_MEMBER_2_FILL"/>
</g>

<g transform="matrix( 0.852386474609375, 0, 0, 0.852386474609375, 24.15,21.55) ">
<use xlink:href="#Layer0_0_MEMBER_0_MEMBER_3_FILL"/>
</g>

<g transform="matrix( 0.852386474609375, 0, 0, 0.852386474609375, 24.15,21.55) ">
<use xlink:href="#Layer0_0_MEMBER_0_MEMBER_4_FILL"/>
</g>

<g transform="matrix( 0.852386474609375, 0, 0, 0.852386474609375, 24.15,21.55) ">
<use xlink:href="#Layer0_0_MEMBER_0_MEMBER_5_FILL"/>
</g>

<g transform="matrix( 0.852386474609375, 0, 0, 0.852386474609375, 24.15,21.55) ">
<use xlink:href="#Layer0_0_MEMBER_0_MEMBER_6_FILL"/>
</g>

<g transform="matrix( 0.852386474609375, 0, 0, 0.852386474609375, 24.15,21.55) ">
<use xlink:href="#Layer0_0_MEMBER_0_MEMBER_7_FILL"/>
</g>

<g transform="matrix( 0.852386474609375, 0, 0, 0.852386474609375, 24.15,21.55) ">
<use xlink:href="#Layer0_0_MEMBER_0_MEMBER_8_FILL"/>
</g>

<g transform="matrix( 0.852386474609375, 0, 0, 0.852386474609375, 24.15,21.55) ">
<use xlink:href="#Layer0_0_MEMBER_0_MEMBER_9_FILL"/>
</g>

<g transform="matrix( 0.852386474609375, 0, 0, 0.852386474609375, 24.15,21.55) ">
<use xlink:href="#Layer0_0_MEMBER_0_MEMBER_10_FILL"/>
</g>
</svg>
